# xmcd
#
# Track frame offsets:
#	150
#	16809
#	30856
#	40694
#	58316
#	68820
#	80297
#	101556
#	109796
#	122540
#	134074
#	147734
#	162926
#	177573
#	189749
#	198714
#	213088
#	225674
#	239582
#	251439
#	267792
#
# Disc length: 3724 seconds
#
# Revision: 1
# Processed by: cddbd v1.5.2PL0 Copyright (c) Steve Scherf et al.
# Submitted via: audiograbber 1.83.01
#
DISCID=2e0e8a15
DTITLE=Various Artist - Las Vegas Legends
DYEAR=2007
DGENRE=Swing
TTITLE0=Frank Sinatra - I've got you under my Skin
TTITLE1=Dean Martin - That's Amore
TTITLE2=Matt Monro - Music to watch Girls by
TTITLE3=Billy Eckstine - Stormy Weather
TTITLE4=Tony Bennett and Count Basie - Anything goes
TTITLE5=Bing Crosby - Hello Dolly
TTITLE6=Louis Prima and Keely Smith - I'm just a Gigolo/I ain't got Nobody
TTITLE7=Shirley Bassey - Big Spender
TTITLE8=Judy Garland and Liza Minnelli - Don't rain on my Parade
TTITLE9=Julie London - Fly me to the Moon (In other Words)
TTITLE10=Fred Astaire - Night and Day
TTITLE11=Al Martino - Can't take my Eyes off you
TTITLE12=Louis Armstrong - We have all the Time in the World
TTITLE13=Dean Martin - Sway (Quien sera)
TTITLE14=Fats Domino - Walking to New Orleans
TTITLE15=Nat King Cole - Unforgettable
TTITLE16=Ronnie Hilton - Magic Moments
TTITLE17=Jackie de Shannon - What the World needs now is Love
TTITLE18=Vic Damone - On the Street where you live
TTITLE19=Judy Garland - Over the Rainbow
TTITLE20=Wayne Newton - Danke Schoen
EXTD=
EXTT0=
EXTT1=
EXTT2=
EXTT3=
EXTT4=
EXTT5=
EXTT6=
EXTT7=
EXTT8=
EXTT9=
EXTT10=
EXTT11=
EXTT12=
EXTT13=
EXTT14=
EXTT15=
EXTT16=
EXTT17=
EXTT18=
EXTT19=
EXTT20=
PLAYORDER=
